<?xml version="1.0" encoding="UTF-8" standalone="no"?>
<svg
   xmlns:dc="http://purl.org/dc/elements/1.1/"
   xmlns:cc="http://creativecommons.org/ns#"
   xmlns:rdf="http://www.w3.org/1999/02/22-rdf-syntax-ns#"
   xmlns:svg="http://www.w3.org/2000/svg"
   xmlns="http://www.w3.org/2000/svg"
   xmlns:sodipodi="http://sodipodi.sourceforge.net/DTD/sodipodi-0.dtd"
   xmlns:inkscape="http://www.inkscape.org/namespaces/inkscape"
   version="1.1"
   id="svg2"
   xml:space="preserve"
   width="275.9838mm"
   height="115.237mm"
   viewBox="0 0 1043.0884 435.54143"
   sodipodi:docname="BelWue_Logo_LBW_RGB.svg"
   inkscape:version="1.0.2 (e86c870879, 2021-01-15)"><metadata
     id="metadata8"><rdf:RDF><cc:Work
         rdf:about=""><dc:format>image/svg+xml</dc:format><dc:type
           rdf:resource="http://purl.org/dc/dcmitype/StillImage" /><dc:title></dc:title></cc:Work></rdf:RDF></metadata><defs
     id="defs6" /><sodipodi:namedview
     pagecolor="#ffffff"
     bordercolor="#666666"
     borderopacity="1"
     objecttolerance="10"
     gridtolerance="10"
     guidetolerance="10"
     inkscape:pageopacity="0"
     inkscape:pageshadow="2"
     inkscape:window-width="2049"
     inkscape:window-height="2047"
     id="namedview4"
     showgrid="false"
     inkscape:zoom="0.91"
     inkscape:cx="436.9945"
     inkscape:cy="350.4289"
     inkscape:window-x="3839"
     inkscape:window-y="0"
     inkscape:window-maximized="0"
     inkscape:current-layer="g10"
     inkscape:document-rotation="0"
     units="mm"
     fit-margin-top="0"
     fit-margin-left="0"
     fit-margin-right="0"
     fit-margin-bottom="0" /><g
     id="g10"
     inkscape:groupmode="layer"
     inkscape:label="ink_ext_XXXXXX"
     transform="matrix(1.3333333,0,0,-1.3333333,0,435.5414)"><path
       d="m 724.39579,225.64593 c 0,-5.99964 -5.27968,-11.27961 -11.27931,-11.27961 -5.99964,0 -11.27932,5.27997 -11.27932,11.27961 0,5.99963 5.27968,11.27871 11.27932,11.27871 5.99963,0 11.27931,-5.27908 11.27931,-11.27871 z m -47.03713,0 c 0,-5.99964 -5.27968,-11.27961 -11.27931,-11.27961 -5.99964,0 -11.27931,5.27997 -11.27931,11.27961 0,5.99963 5.27967,11.27871 11.27931,11.27871 5.99963,0 11.27931,-5.27908 11.27931,-11.27871 z m -25.92142,-93.59309 c 0,14.63941 0.47997,36.95624 0.47997,51.11538 0,3.3607 -4.07675,3.83977 -6.95957,4.56062 -5.75965,1.43901 -7.19956,1.91929 -7.19956,3.59978 0,2.15957 2.64283,2.15957 5.99963,2.15957 3.36279,0 6.71959,-0.48057 10.32237,-0.48057 3.35679,0 6.95957,0.48057 10.55936,0.48057 3.1168,0 3.59678,-1.19993 3.59678,-4.56062 0,-21.3572 -0.47998,-42.71589 -0.47998,-64.07189 0,-9.8409 7.19957,-15.36236 18.95885,-15.36236 26.64137,0 28.56125,11.28081 28.79824,21.12171 0,17.03806 0.47997,34.3164 0.47997,51.35446 0,2.87893 -1.19693,2.87893 -12.47924,5.75935 -1.91688,0.48027 -6.95657,1.91929 -6.95657,3.83887 0,1.43991 2.63684,1.92048 5.27967,1.92048 4.07676,0 8.15651,-0.48057 12.23926,-0.48057 4.7997,0 9.35643,0.48057 14.15613,0.48057 1.6799,0 5.0427,-0.71936 5.0427,-5.03879 0,-24.23882 -0.95995,-48.47734 -0.95995,-72.71616 0,-5.0388 4.07976,-5.75935 6.23962,-5.75935 9.35643,0 12.47924,0 12.47924,-2.39656 0,-1.92168 -1.19992,-2.40225 -4.8027,-2.88252 -16.79898,-2.64014 -26.63538,-4.798507 -28.79825,-4.798507 -1.91988,0 -1.91988,1.681397 -1.91988,3.837667 v 5.51906 c 0,1.92168 -0.47697,2.88283 -1.6769,2.88283 -3.84276,0 -14.16213,-14.16124 -33.60095,-14.16124 -22.55862,0 -28.79824,13.68067 -28.79824,34.07822"
       style="fill:#000000;fill-opacity:1;fill-rule:nonzero;stroke:none;stroke-width:0.299982"
       id="path14" /><path
       d="m 281.63481,180.76837 c 0,8.1592 -7.68013,14.6382 -17.75862,14.6382 -17.28074,0 -27.59951,-16.79807 -27.59951,-24.23762 0,-1.67929 0.48027,-2.15987 20.87903,-2.15987 21.11841,0 24.4791,3.12071 24.4791,11.75929 z m -47.5189,-18.95765 c -0.47817,-1.43781 -0.47817,-4.56062 -0.47817,-8.39828 0,-20.16087 5.51906,-40.07906 34.79788,-40.07906 18.47827,0 18.95854,9.60062 22.79741,9.60062 1.20112,0 2.16076,-0.72086 2.16076,-1.92199 0,-1.67899 -10.07968,-19.19762 -35.03936,-19.19762 -26.39719,0 -41.51686,18.71735 -41.51686,48.71552 0,22.55833 13.91975,50.63721 43.67793,50.63721 27.59712,0 36.95744,-23.51946 36.95744,-33.83703 0,-4.32064 -0.71965,-5.51937 -4.7997,-5.51937 h -58.55733"
       style="fill:#aaaaaa;fill-opacity:1;fill-rule:nonzero;stroke:none;stroke-width:0.299982"
       id="path16" /><path
       d="m 344.75096,120.53174 c 0,-5.99963 4.55972,-6.95807 15.11908,-9.59701 1.91988,-0.48057 3.59978,-0.48057 3.59978,-2.64014 0,-2.15837 -1.43992,-3.11951 -2.87983,-3.11951 -7.19956,0 -14.6391,0.96114 -21.83867,0.96114 -8.1595,0 -16.55898,-0.96114 -24.71849,-0.96114 -1.67989,0 -3.35979,0.96114 -3.35979,2.63894 0,2.88042 3.35979,2.64014 5.03969,3.12071 8.63947,2.39865 12.71922,3.11921 12.71922,17.51833 v 112.55163 c 0,5.27908 -11.51929,6.95838 -11.51929,8.87886 0,0.95964 0.71995,2.16077 1.91988,2.64014 l 19.43881,6.72019 c 1.43992,0.47817 3.3598,0.95874 4.79971,0.95874 2.15987,0 2.15987,-3.11951 2.15987,-4.79971 0,-5.51936 -0.47997,-11.27871 -0.47997,-17.27834 V 120.53174"
       style="fill:#aaaaaa;fill-opacity:1;fill-rule:nonzero;stroke:none;stroke-width:0.299982"
       id="path18" /><path
       d="m 73.680603,187.24827 c 1.679298,-0.71935 7.919217,-1.44021 14.638207,-1.44021 3.360695,0 8.400687,0.48057 12.47984,0.72086 15.83813,1.19992 26.1581,13.91975 26.1581,28.79824 0,26.63867 -23.75825,27.11654 -38.63794,27.11654 -11.038427,0 -14.638207,-1.19872 -14.638207,-7.19836 z m -0.480271,-60.23422 c 0,-10.31997 2.878925,-16.55989 25.917819,-16.55989 4.800909,0 10.079989,0.48057 15.119679,1.92168 12.47984,3.59768 20.63784,15.59695 20.63784,30.71903 0,31.67506 -26.87746,35.51363 -53.27585,35.51363 -4.799707,0 -8.399488,-0.23999 -8.399488,-1.6802 z M 52.801577,222.767 c 0,3.59858 0.239986,7.43955 0.239986,9.59822 0,6.4799 -3.839766,6.72019 -11.039327,7.67983 -6.719289,0.95964 -10.078784,1.19993 -10.078784,4.07915 0,2.88012 8.158002,4.08125 12.479838,4.08125 22.797409,0 45.355732,1.91838 50.395724,1.91838 35.997806,0 50.877196,-18.71855 50.877196,-34.55759 0,-23.27798 -16.31961,-25.19846 -16.31961,-27.59711 0,-3.60098 27.11895,-9.12035 27.11895,-39.59549 0,-21.59988 -6.4799,-34.3197 -33.35886,-43.19856 -6.47991,-2.15957 -30.718729,-2.88012 -66.236262,-2.88012 -5.759348,0 -12.957709,-0.48057 -18.476772,-0.48057 -5.761748,0 -8.641033,0 -8.641033,3.12071 0,2.87892 5.280038,2.87892 10.318831,3.11921 5.280277,0.24028 10.559355,1.91958 10.559355,7.67893 L 52.801577,222.767"
       style="fill:#000000;fill-opacity:1;fill-rule:nonzero;stroke:none;stroke-width:0.299982"
       id="path20" /><path
       d="m 498.45858,104.69481 c -0.64496,-1.20113 -1.94388,-2.88042 -3.67178,-2.88042 -1.07993,0 -3.02381,0.72085 -4.9647,5.75964 L 437.55029,235.9662 c -3.02081,7.43834 -3.66877,8.158 -7.77252,9.8382 -4.53572,1.92078 -8.85846,1.44021 -8.85846,4.7997 0,1.44022 1.07993,2.88043 6.4826,2.88043 3.88777,0 11.23132,-0.95964 18.78786,-0.95964 6.26362,0 12.74322,0.95964 19.00684,0.95964 3.02381,0 4.10075,-0.95964 4.10075,-3.3607 0,-4.31943 -6.04163,-3.83886 -10.36437,-4.31943 -1.29292,-0.23999 -2.37586,-1.19993 -2.37586,-3.12041 0,-0.95844 0.21899,-2.39866 0.64797,-3.3595 l 41.68845,-105.83264 c 0.64496,-1.91928 1.07694,-3.11711 2.58884,-3.11711 1.29892,0 1.94388,1.43782 2.59484,2.63654 l 16.412,36.95895 c 0.65096,1.43871 1.07994,2.39985 1.07994,2.63984 0,1.43901 -1.50891,3.59978 -1.94088,4.7985 l -28.29728,63.83641 c -1.94088,4.55942 -4.53572,3.84006 -6.91158,4.55942 -4.10375,1.19992 -9.06844,1.44021 -9.06844,4.55972 0,3.12041 3.45279,3.12041 4.10075,3.12041 7.13056,0 14.25513,-0.95964 21.60168,-0.95964 7.77552,0 15.55105,0.95964 23.32658,0.95964 1.5119,0 3.45578,-0.48057 3.45578,-2.88043 0,-4.7997 -8.42648,-2.16076 -14.25513,-4.7997 -1.94388,-0.71936 -1.94388,-1.92048 -1.94388,-3.12041 0,-0.71816 0,-1.6793 0.43198,-2.39866 l 17.27894,-40.55722 c 0.86095,-1.92078 1.51191,-5.51936 3.2398,-5.51936 1.50891,0 2.37286,2.39865 2.80783,3.59858 l 15.11608,37.91858 c 1.29892,3.3595 2.37886,5.99964 2.37886,7.67863 0,2.15987 -1.51191,2.39986 -2.81083,2.39986 -4.75171,0.24028 -11.66329,0.95994 -11.66329,3.59978 0,4.08035 1.51191,4.08035 4.9707,4.08035 6.04463,0 12.09226,-0.95964 18.35588,-0.95964 4.96769,0 12.52723,0.95964 15.33506,0.95964 2.81083,0 4.53872,-0.72056 4.53872,-4.08035 0,-3.3595 -9.93839,-2.63984 -12.74322,-3.59978 -1.08293,-0.48027 -6.04763,-4.31914 -8.2105,-9.36033 l -20.95072,-49.91515 c -0.86095,-2.16077 -1.72789,-3.12071 -1.72789,-3.84127 0,-0.95844 0.65096,-1.6793 1.72789,-3.83887 l 17.27895,-39.35729 c 1.5119,-3.3571 2.37885,-6.48021 3.89076,-6.48021 1.29292,0 1.94388,1.20113 2.37585,2.16197 l 39.52259,103.91216 c 0.43197,0.95964 0.86695,1.91928 0.86695,3.12041 0,2.39865 -1.08294,3.11831 -2.37286,3.59858 -4.54172,1.6805 -8.2105,1.19992 -9.50642,1.6805 -1.29592,0.48057 -2.15987,1.43901 -2.15987,2.87922 0,2.63984 1.7249,3.12041 3.23981,3.12041 4.31673,0 11.01232,-0.95964 16.412,-0.95964 4.97069,0 12.52723,0.95964 17.27894,0.95964 2.59484,0 4.32274,-0.48057 4.32274,-2.88043 0,-4.7997 -9.07445,-2.39865 -11.66629,-4.7997 -5.61266,-5.75935 -7.34055,-10.79934 -9.9324,-17.51833 L 559.79883,103.97425 c -0.42897,-0.96114 -1.29592,-2.15986 -3.02081,-2.15986 -1.94388,0 -2.59484,1.43901 -3.45879,3.12071 l -25.05147,55.19783 c -0.21599,0.72055 -0.86395,0.96084 -1.51491,0.96084 -2.37285,0 -2.80783,-2.88283 -4.10075,-5.76295 l -24.19352,-50.63601"
       style="fill:#000000;fill-opacity:1;fill-rule:nonzero;stroke:none;stroke-width:0.299982"
       id="path22" /><path
       d="M 0,284.13906 H 782.31625"
       style="fill:none;stroke:#ffe600;stroke-width:8.50538;stroke-linecap:butt;stroke-linejoin:miter;stroke-miterlimit:4;stroke-dasharray:none;stroke-opacity:1"
       id="path24" /><path
       d="M 0,71.552533 H 782.31625"
       style="fill:none;stroke:#ffe600;stroke-width:8.99945;stroke-linecap:butt;stroke-linejoin:miter;stroke-miterlimit:4;stroke-dasharray:none;stroke-opacity:1"
       id="path26" /><path
       d="M 187.07608,326.65606 V 39.240305"
       style="fill:none;stroke:#ffe600;stroke-width:8.221;stroke-linecap:butt;stroke-linejoin:miter;stroke-miterlimit:4;stroke-dasharray:none;stroke-opacity:1"
       id="path28" /><path
       d="M 391.15813,326.65606 V 12.026206"
       style="fill:none;stroke:#ffe600;stroke-width:8.99945;stroke-linecap:butt;stroke-linejoin:miter;stroke-miterlimit:4;stroke-dasharray:none;stroke-opacity:1"
       id="path30" /><path
       d="m 201.95787,284.13906 c 0,-8.2192 -6.66379,-14.88209 -14.88539,-14.88209 -8.2201,0 -14.87699,6.66289 -14.87699,14.88209 0,8.2165 6.65689,14.87939 14.87699,14.87939 8.2216,0 14.88539,-6.66289 14.88539,-14.87939"
       style="fill:#ffe600;fill-opacity:1;fill-rule:nonzero;stroke:none;stroke-width:0.299982"
       id="path32" /><path
       d="m 201.95787,71.552533 c 0,-8.220098 -6.66379,-14.881792 -14.88539,-14.881792 -8.2201,0 -14.87699,6.661694 -14.87699,14.881792 0,8.214399 6.65689,14.882092 14.87699,14.882092 8.2216,0 14.88539,-6.667693 14.88539,-14.882092"
       style="fill:#ffe600;fill-opacity:1;fill-rule:nonzero;stroke:none;stroke-width:0.299982"
       id="path34" /><path
       d="m 406.03722,284.13906 c 0,-8.2192 -6.6596,-14.88209 -14.88209,-14.88209 -8.2195,0 -14.8761,6.66289 -14.8761,14.88209 0,8.2165 6.6566,14.87939 14.8761,14.87939 8.22249,0 14.88209,-6.66289 14.88209,-14.87939"
       style="fill:#ffe600;fill-opacity:1;fill-rule:nonzero;stroke:none;stroke-width:0.299982"
       id="path36" /><path
       d="m 406.03722,71.552533 c 0,-8.220098 -6.6596,-14.881792 -14.88209,-14.881792 -8.2195,0 -14.8761,6.661694 -14.8761,14.881792 0,8.214399 6.6566,14.882092 14.8761,14.882092 8.22249,0 14.88209,-6.667693 14.88209,-14.882092"
       style="fill:#ffe600;fill-opacity:1;fill-rule:nonzero;stroke:none;stroke-width:0.299982"
       id="path38" /><path
       d="m 1.2596891,49.241395 c 1.9955922,-0.0525 3.8845169,-0.101694 5.8273784,-0.101694 1.9416914,0 3.9372595,0.0492 5.8789515,0.101694 V 47.458003 C 9.5021601,47.247116 9.3439497,47.038629 9.2924129,41.94704 V 17.795004 c 0,-3.095901 0.1570104,-3.726343 3.9372601,-3.726343 3.097071,0 7.295644,0 8.871718,7.085898 l 1.784651,-0.365588 C 22.94158,17.110686 22.731803,16.010353 21.995918,12.020356 13.860084,12.12583 9.7119073,12.12583 7.8217826,12.12583 c -2.9400605,0 -4.1470069,-0.05157 -6.5620935,-0.105474 v 1.784651 c 2.1010358,0.159381 2.3096131,0.263654 2.834581,0.630442 0.4206943,0.423034 0.6316115,0.998369 0.6820084,1.994398 0.1054436,1.524537 0.1581803,4.09547 0.1581803,6.038302 v 18.427755 c 0,1.051136 -0.052737,3.623179 -0.1581803,4.513825 -0.2613141,1.837387 -1.2069763,1.890184 -3.5165894,1.995478 v 1.836188"
       style="fill:#000000;fill-opacity:1;fill-rule:nonzero;stroke:none;stroke-width:0.299982"
       id="path40" /><path
       d="M 37.902087,24.148526 C 31.970249,21.785 31.024706,20.842878 31.024706,18.112565 c 0,-1.523337 0.577765,-3.884523 2.782931,-3.884523 1.574903,0 2.887323,1.047596 3.988856,1.940491 z m 3.780069,-6.983934 c 0.0516,-1.571394 0.0516,-2.570963 1.101533,-2.570963 0.577765,0 1.365216,0.420695 1.838588,0.682009 l 0.786252,-1.365157 c -1.31242,-0.891756 -3.095811,-2.151439 -4.829106,-2.151439 -2.047075,0 -2.519246,1.730775 -2.730133,2.676407 -1.207126,-1.101503 -2.940121,-2.726774 -5.773448,-2.726774 -3.360785,0 -5.197002,2.726774 -5.197002,5.666835 0,2.78302 1.312419,3.779049 1.783481,4.148176 1.523337,1.209317 5.775877,2.886154 9.239766,4.305218 v 2.888493 c 0,2.150119 0,4.774959 -2.519547,4.774959 -0.681858,0 -1.312419,-0.207287 -1.574903,-0.260084 -1.837388,-0.630262 -2.047075,-1.417714 -2.152669,-2.311959 -0.15689,-1.625211 -0.15689,-1.783421 -0.524968,-2.202916 -0.419374,-0.527308 -1.837268,-1.206976 -2.467679,-1.206976 -0.523798,0 -1.049936,0.208577 -1.049936,1.520997 0,1.681607 0.840188,2.519456 1.365156,2.888434 1.838678,1.520007 4.881692,2.937721 6.773077,3.779169 1.888985,0.210887 4.09415,-0.366877 5.196883,-1.995478 C 41.78655,32.44362 41.78655,30.97311 41.78655,28.873238 L 41.682156,17.164592"
       style="fill:#000000;fill-opacity:1;fill-rule:nonzero;stroke:none;stroke-width:0.299982"
       id="path42" /><path
       d="m 47.087826,34.175714 c 2.78293,0.681859 3.465089,0.892746 6.142425,1.994278 l 0.893046,-0.31288 c -0.105594,-1.365217 -0.158091,-1.681398 -0.158091,-3.518786 2.309559,1.576104 3.097011,2.048275 5.460567,3.360695 1.31242,0.210887 2.46645,0.105294 3.674776,-0.524968 2.78173,-1.523307 2.834527,-4.461028 2.887324,-6.72031 v -9.029928 c 0,-0.840189 0,-3.518936 0.102893,-4.199744 0.211187,-1.365157 1.051136,-1.419064 2.78323,-1.520997 v -1.682718 c -1.888984,0.05391 -3.621979,0.159381 -5.669354,0.159381 -1.837387,0 -2.728933,-0.105474 -3.937259,-0.159381 v 1.734285 c 1.837388,0.104273 2.62484,0.15584 2.730433,2.150238 0.0528,0.578875 0.0528,1.365157 0.105294,4.937999 v 4.826645 c -0.0525,4.09664 -0.105294,7.246568 -3.098211,7.246568 -1.627401,0 -3.307898,-1.15433 -4.987196,-2.361456 V 18.370369 c 0,-3.93492 0.0528,-4.615728 2.730433,-4.615728 v -1.734285 c -1.680497,0.105474 -3.413491,0.159381 -5.091589,0.159381 -1.523307,0 -3.098211,-0.05391 -4.620318,-0.159381 v 1.784651 c 2.256762,0 2.940121,0.315221 3.044214,1.892465 0.0528,1.206976 0.0528,2.097532 0.0528,3.987657 v 5.198112 c 0,2.78305 -0.0528,5.25202 -0.15689,6.353553 -0.158391,1.365216 -0.788652,1.365216 -2.888524,1.365216 v 1.573704"
       style="fill:#000000;fill-opacity:1;fill-rule:nonzero;stroke:none;stroke-width:0.299982"
       id="path44" /><path
       d="m 84.990813,27.824472 c 0,2.361186 -0.104094,3.623209 -0.629062,4.619148 -0.840249,1.418013 -2.258262,1.576104 -2.992917,1.576104 -4.987196,0 -5.038793,-7.615486 -5.038793,-9.034519 0,-7.766736 2.834527,-10.499359 5.459367,-10.499359 1.574004,0 2.415153,0.789792 3.201405,1.578414 z m -3.045414,21.469719 c 3.203804,0.894246 3.834066,1.15793 6.511702,2.572043 l 0.891846,-0.418174 c -0.262484,-2.62484 -0.368078,-3.990057 -0.420875,-8.294194 -0.104093,-5.931538 -0.104093,-13.124199 -0.104093,-19.110813 0,-1.784651 0,-6.40389 0.15689,-7.87452 0.105594,-1.363957 0.788652,-1.417863 1.627701,-1.417863 h 1.155229 v -1.678038 c -2.677336,-0.629241 -3.517585,-0.838989 -6.246818,-1.838558 l -0.735855,0.369128 0.262484,2.465459 c -1.469311,-1.100302 -3.045415,-2.309619 -5.564961,-2.309619 -5.091289,0 -7.506442,5.670374 -7.506442,11.759043 0,6.195341 2.309559,12.339027 8.557578,12.339027 2.466749,0 3.516685,-0.841149 4.461028,-1.523307 v 8.609174 c 0,4.673115 -0.104094,4.673115 -3.045414,4.673115 v 1.678097"
       style="fill:#000000;fill-opacity:1;fill-rule:nonzero;stroke:none;stroke-width:0.299982"
       id="path46" /><path
       d="m 105.30767,27.718998 c 0.84025,0 1.6265,0.105474 1.6265,1.31242 0,1.15424 -0.36687,2.888434 -1.10153,3.884673 -0.68216,0.892746 -1.47051,1.103633 -2.20546,1.103633 -2.83453,0 -4.252245,-3.359495 -4.67072,-6.300726 z m -6.5093,-1.839727 c 0.105294,-2.517027 0.208487,-5.513334 1.73179,-8.291674 1.36522,-2.519367 3.04452,-3.152148 4.72472,-3.152148 2.52044,0 3.88566,1.628811 4.98719,3.047874 l 1.15553,-0.999569 c -0.94464,-1.31359 -3.67477,-4.880552 -8.1382,-4.880552 -5.038795,0 -8.39829,4.355584 -8.39829,11.441482 0,7.668341 3.93726,12.812428 8.87166,12.812428 4.04255,0 6.82458,-3.202605 6.82458,-7.71625 0,-1.944031 -0.57776,-2.261591 -1.83739,-2.261591 h -9.92159"
       style="fill:#000000;fill-opacity:1;fill-rule:nonzero;stroke:none;stroke-width:0.299982"
       id="path48" /><path
       d="m 116.06832,18.84728 c 0.26368,-1.363957 0.52616,-2.942401 1.73299,-4.148177 0.68336,-0.684318 1.78579,-1.31359 3.15101,-1.31359 2.25706,0 3.51668,1.577244 3.51668,3.254111 0,2.313129 -1.88898,3.78022 -4.04285,5.514504 -3.3067,2.573273 -5.40657,4.304017 -5.40657,7.453825 0,2.364696 1.6277,6.143865 6.98147,6.143865 1.89139,0 3.20381,-0.419674 4.51623,-0.841449 l 0.62936,-5.615267 -1.6805,-0.105474 c -0.31408,1.677888 -0.94434,4.830096 -3.99005,4.830096 -1.99428,0 -3.04422,-1.31242 -3.04422,-2.835727 0,-1.836188 1.41772,-3.095871 4.19855,-5.304726 3.2554,-2.62484 5.35527,-4.250111 5.35527,-7.820613 0,-3.095901 -1.99458,-6.509363 -7.50674,-6.509363 -2.46765,0 -3.72758,0.471061 -5.09249,0.996029 l -1.04904,6.143775 1.7309,0.158181"
       style="fill:#000000;fill-opacity:1;fill-rule:nonzero;stroke:none;stroke-width:0.299982"
       id="path50" /><path
       d="m 131.18799,49.188898 c 2.78203,0.841149 3.46389,1.157629 6.35122,2.78293 l 0.84024,-0.365678 c -0.21088,-2.624839 -0.21088,-3.097011 -0.26368,-5.72185 l -0.0504,-13.387883 c 2.09868,1.418013 2.72804,1.837388 5.30008,3.307898 1.94418,0.260384 3.36069,0.0528 4.56902,-0.893946 1.20683,-0.943442 1.94268,-2.466749 2.15117,-4.461027 0.10559,-1.101533 0.10559,-2.46666 0.10559,-10.131432 0,-0.894095 0,-4.203254 0.0528,-4.937999 0.15689,-1.676837 1.20683,-1.676837 2.83453,-1.730744 v -1.628811 c -1.52331,0.05391 -3.09821,0.105474 -4.61912,0.105474 -1.78609,0 -3.51789,-0.05157 -5.24968,-0.105474 v 1.628811 c 2.30956,0 2.93862,0.261314 3.04421,2.309619 0,0.734715 0.0528,5.24968 0.0528,7.139804 0,1.365157 0,5.460597 -0.15839,6.667573 -0.26128,2.153689 -1.52091,3.255222 -3.04421,3.255222 -1.36522,0 -2.72924,-0.841449 -4.9884,-2.30836 -0.0504,-2.835816 -0.10319,-5.72782 -0.10319,-8.403057 0,-0.945632 0,-6.71677 0.20878,-7.401118 0.36778,-1.259683 1.25963,-1.259683 2.88733,-1.259683 v -1.628811 c -1.52241,0.05391 -3.2542,0.159381 -4.9347,0.159381 -1.679,0 -3.3583,-0.105474 -5.09129,-0.159381 v 1.628811 c 2.99262,0.105474 2.99262,0.209747 3.04541,4.043903 0.0504,4.514965 0.0504,9.029899 0.0504,13.543724 0,2.413952 0,14.120138 -0.20849,15.22527 -0.26248,1.15403 -0.99834,1.15403 -2.78203,1.15403 v 1.572804"
       style="fill:#000000;fill-opacity:1;fill-rule:nonzero;stroke:none;stroke-width:0.299982"
       id="path52" /><path
       d="m 160.585,24.148526 c 0,-2.993967 0.42087,-5.984395 1.10393,-7.613205 0.78745,-1.730745 2.09987,-2.937721 3.67478,-2.937721 4.19974,0 4.19974,7.556959 4.19974,10.077525 0,1.888955 0,10.397395 -4.77871,10.133712 -2.25676,-0.158091 -4.19974,-2.730134 -4.19974,-9.660311 z m 10.65775,8.453484 c 0.47217,-0.523768 2.83453,-3.623299 2.83453,-8.822611 0,-6.668713 -3.46389,-12.176197 -8.97726,-12.176197 -6.24562,0 -9.02855,6.401549 -9.02855,12.016846 0,4.257161 1.47051,8.507391 4.72472,10.766553 1.04873,0.734655 2.67613,1.365217 3.93726,1.365217 1.5749,0 4.19974,-0.210887 6.5093,-3.149808"
       style="fill:#000000;fill-opacity:1;fill-rule:nonzero;stroke:none;stroke-width:0.299982"
       id="path54" /><path
       d="m 193.2902,16.168533 c -0.52377,-0.734715 -0.99714,-1.417863 -1.88898,-2.258052 -1.41802,-1.259683 -3.2554,-2.307279 -5.56496,-2.307279 -5.40657,0 -7.87452,5.355153 -7.87452,11.180167 0,6.617177 3.2026,13.073743 9.60781,13.073743 2.83453,0 5.24968,-1.365217 5.24968,-2.311959 0,-0.418175 -0.26248,-0.837849 -0.47367,-1.15403 -0.62906,-1.101533 -0.94434,-1.625301 -1.6802,-1.625301 -0.57656,0 -0.94464,0.523768 -1.25962,1.048736 -1.04994,1.625301 -1.46841,2.257962 -2.72923,2.257962 -2.67644,0 -4.61912,-3.675975 -4.61912,-8.822491 0,-5.24968 1.99428,-10.970421 5.72185,-10.970421 2.15267,0 3.46509,1.784652 4.30384,2.938861 l 1.20712,-1.049936"
       style="fill:#000000;fill-opacity:1;fill-rule:nonzero;stroke:none;stroke-width:0.299982"
       id="path56" /><path
       d="m 194.60262,49.188898 c 2.78173,0.841149 3.46509,1.157629 6.35122,2.78293 l 0.84114,-0.365678 C 201.5841,48.981311 201.5841,48.509139 201.5316,45.8843 L 201.48,32.496417 c 2.09867,1.418013 2.72894,1.837388 5.30128,3.307898 1.94388,0.260384 3.35949,0.0528 4.56872,-0.893946 1.20683,-0.943442 1.94178,-2.466749 2.15147,-4.461027 0.10529,-1.101533 0.10529,-2.46666 0.10529,-10.131432 0,-0.894095 0,-4.203254 0.0528,-4.937999 0.15719,-1.676837 1.20713,-1.676837 2.83453,-1.730744 v -1.628811 c -1.52331,0.05391 -3.09821,0.105474 -4.62032,0.105474 -1.78579,0 -3.51669,-0.05157 -5.24968,-0.105474 v 1.628811 c 2.30956,0 2.94012,0.261314 3.04541,2.309619 0,0.734715 0.0528,5.24968 0.0528,7.139804 0,1.365157 0,5.460597 -0.15809,6.667573 -0.26248,2.153689 -1.52211,3.255222 -3.04541,3.255222 -1.36522,0 -2.72924,-0.841449 -4.9872,-2.30836 -0.0516,-2.835816 -0.10439,-5.72782 -0.10439,-8.403057 0,-0.945632 0,-6.71677 0.20968,-7.401118 0.36808,-1.259683 1.25963,-1.259683 2.88733,-1.259683 v -1.628811 c -1.52211,0.05391 -3.2551,0.159381 -4.9356,0.159381 -1.6781,0 -3.3583,-0.105474 -5.09159,-0.159381 v 1.628811 c 2.99292,0.105474 2.99292,0.209747 3.04571,4.043903 0.0516,4.514965 0.0516,9.029899 0.0516,13.543724 0,2.413952 0,14.120138 -0.20999,15.22527 -0.26248,1.15403 -0.99714,1.15403 -2.78173,1.15403 v 1.572804"
       style="fill:#000000;fill-opacity:1;fill-rule:nonzero;stroke:none;stroke-width:0.299982"
       id="path58" /><path
       d="m 220.48414,18.84728 c 0.26369,-1.363957 0.52497,-2.942401 1.7321,-4.148177 0.68306,-0.684318 1.78579,-1.31359 3.15101,-1.31359 2.25676,0 3.51638,1.577244 3.51638,3.254111 0,2.313129 -1.88898,3.78022 -4.04255,5.514504 -3.307,2.573273 -5.40567,4.304017 -5.40567,7.453825 0,2.364696 1.6265,6.143865 6.98057,6.143865 1.89109,0 3.20351,-0.419674 4.51593,-0.841449 l 0.62936,-5.615267 -1.6793,-0.105474 c -0.31498,1.677888 -0.94554,4.830096 -3.98976,4.830096 -1.99578,0 -3.04571,-1.31242 -3.04571,-2.835727 0,-1.836188 1.41801,-3.095871 4.19974,-5.304726 3.2542,-2.62484 5.35528,-4.250111 5.35528,-7.820613 0,-3.095901 -1.99578,-6.509363 -7.50795,-6.509363 -2.46645,0 -3.72727,0.471061 -5.09129,0.996029 l -1.04993,6.143775 1.73179,0.158181"
       style="fill:#000000;fill-opacity:1;fill-rule:nonzero;stroke:none;stroke-width:0.299982"
       id="path60" /><path
       d="m 251.24517,16.168533 c -0.52497,-0.734715 -0.99714,-1.417863 -1.89019,-2.258052 -1.41771,-1.259683 -3.2539,-2.307279 -5.56346,-2.307279 -5.40687,0 -7.87452,5.355153 -7.87452,11.180167 0,6.617177 3.20111,13.073743 9.60631,13.073743 2.83453,0 5.24968,-1.365217 5.24968,-2.311959 0,-0.418175 -0.26128,-0.837849 -0.47217,-1.15403 -0.63056,-1.101533 -0.94584,-1.625301 -1.68049,-1.625301 -0.57777,0 -0.94435,0.523768 -1.25963,1.048736 -1.04993,1.625301 -1.46931,2.257962 -2.73043,2.257962 -2.67614,0 -4.61792,-3.675975 -4.61792,-8.822491 0,-5.24968 1.99308,-10.970421 5.72065,-10.970421 2.15387,0 3.46629,1.784652 4.30534,2.938861 l 1.20683,-1.049936"
       style="fill:#000000;fill-opacity:1;fill-rule:nonzero;stroke:none;stroke-width:0.299982"
       id="path62" /><path
       d="m 252.03262,49.188898 c 2.78203,0.841149 3.46509,1.157629 6.35241,2.78293 l 0.84025,-0.365678 c -0.21089,-2.624839 -0.21089,-3.097011 -0.26369,-5.72185 L 258.91,32.496417 c 2.09987,1.418013 2.72923,1.837388 5.30127,3.307898 1.94389,0.260384 3.3595,0.0528 4.56873,-0.893946 1.20712,-0.943442 1.94178,-2.466749 2.15146,-4.461027 0.1056,-1.101533 0.1056,-2.46666 0.1056,-10.131432 0,-0.894095 0,-4.203254 0.0528,-4.937999 0.15689,-1.676837 1.20683,-1.676837 2.83453,-1.730744 v -1.628811 c -1.52331,0.05391 -3.09821,0.105474 -4.62062,0.105474 -1.78579,0 -3.51638,-0.05157 -5.24968,-0.105474 v 1.628811 c 2.30986,0 2.94012,0.261314 3.04572,2.309619 0,0.734715 0.0528,5.24968 0.0528,7.139804 0,1.365157 0,5.460597 -0.15839,6.667573 -0.26248,2.153689 -1.5221,3.255222 -3.04541,3.255222 -1.36522,0 -2.72923,-0.841449 -4.9872,-2.30836 -0.0516,-2.835816 -0.10439,-5.72782 -0.10439,-8.403057 0,-0.945632 0,-6.71677 0.20969,-7.401118 0.36808,-1.259683 1.25992,-1.259683 2.88732,-1.259683 v -1.628811 c -1.5221,0.05391 -3.2551,0.159381 -4.9356,0.159381 -1.67779,0 -3.35829,-0.105474 -5.09129,-0.159381 v 1.628811 c 2.99262,0.105474 2.99262,0.209747 3.04542,4.043903 0.0516,4.514965 0.0516,9.029899 0.0516,13.543724 0,2.413952 0,14.120138 -0.20969,15.22527 -0.26249,1.15403 -0.99744,1.15403 -2.78203,1.15403 v 1.572804"
       style="fill:#000000;fill-opacity:1;fill-rule:nonzero;stroke:none;stroke-width:0.299982"
       id="path64" /><path
       d="m 286.46962,34.910369 c 3.41349,0.158091 4.09535,0.263684 6.93017,0.788652 V 24.463747 c 0,-4.674315 0,-5.828554 0.0525,-6.824584 0.10559,-2.730313 0.41967,-2.730313 2.93892,-2.676406 v -1.577244 c -2.62484,-0.471061 -3.3067,-0.630441 -6.40371,-1.626471 l -0.73495,0.366788 0.26248,2.9424 c -1.73299,-1.524537 -3.93726,-3.413461 -6.92988,-3.413461 -4.56782,0 -4.56782,4.409491 -4.56782,6.403889 v 6.614836 c 0,1.31125 0,6.246819 -0.15569,7.193561 -0.15839,1.31242 -0.94704,1.365217 -2.41635,1.418014 v 1.6253 c 3.04541,0.158091 3.72877,0.263684 6.4565,0.788652 V 19.583195 c 0,-2.207685 0,-5.043442 2.67764,-5.043442 2.25826,0 4.35814,1.890094 5.09399,2.624839 v 8.349091 c 0,1.262023 -0.0528,2.521706 -0.0528,3.781419 -0.15809,3.726283 -0.31528,3.884373 -3.151,3.93717 v 1.678097"
       style="fill:#000000;fill-opacity:1;fill-rule:nonzero;stroke:none;stroke-width:0.299982"
       id="path66" /><path
       d="m 297.91452,49.034107 c 2.78413,0.837849 3.46509,1.101533 6.30291,2.62484 l 0.78595,-0.474571 -0.10499,-2.203065 c -0.051,-0.946743 -0.10499,-7.350752 -0.10499,-8.610375 V 19.108594 c 0,-1.259683 0,-3.149808 0.10499,-3.77905 0.20999,-1.62647 1.10093,-1.62647 2.88882,-1.62647 v -1.682718 c -1.67989,0.05391 -3.30879,0.159381 -4.93469,0.159381 -1.6289,0 -3.3103,-0.05391 -4.938,-0.159381 v 1.628811 c 1.78489,0 2.73013,0.15584 2.94312,1.784651 0.051,0.420694 0.051,1.15541 0.10199,3.780249 v 22.363995 c 0,5.932738 -0.051,5.932738 -3.04511,5.985535 v 1.47051"
       style="fill:#000000;fill-opacity:1;fill-rule:nonzero;stroke:none;stroke-width:0.299982"
       id="path68" /><path
       d="m 309.51811,34.175714 c 2.78083,0.681859 3.46479,0.892746 6.14362,1.994278 l 0.89095,-0.31288 c -0.10499,-1.365217 -0.15899,-1.681398 -0.15899,-3.518786 2.30986,1.576104 3.09881,2.048275 5.46267,3.360695 1.31092,0.210887 2.46585,0.105294 3.67477,-0.524968 2.78083,-1.523307 2.83183,-4.461028 2.88583,-6.72031 v -9.029928 c 0,-0.840189 0,-3.518936 0.10499,-4.199744 0.20999,-1.365157 1.04994,-1.419064 2.78083,-1.520997 v -1.682718 c -1.88689,0.05391 -3.62078,0.159381 -5.66965,0.159381 -1.83589,0 -2.72684,-0.105474 -3.93576,-0.159381 v 1.734285 c 1.83888,0.104273 2.62484,0.15584 2.72983,2.150238 0.054,0.578875 0.054,1.365157 0.10499,4.937999 v 4.826645 c -0.051,4.09664 -0.10499,7.246568 -3.09881,7.246568 -1.6259,0 -3.3058,-1.15433 -4.98569,-2.361456 V 18.370369 c 0,-3.93492 0.051,-4.615728 2.72983,-4.615728 v -1.734285 c -1.6799,0.105474 -3.41379,0.159381 -5.09069,0.159381 -1.52391,0 -3.09881,-0.05391 -4.61972,-0.159381 v 1.784651 c 2.25586,0 2.93982,0.315221 3.04182,1.892465 0.054,1.206976 0.054,2.097532 0.054,3.987657 v 5.198112 c 0,2.78305 -0.054,5.25202 -0.15599,6.353553 -0.15899,1.365216 -0.78895,1.365216 -2.88882,1.365216 v 1.573704"
       style="fill:#000000;fill-opacity:1;fill-rule:nonzero;stroke:none;stroke-width:0.299982"
       id="path70" /><path
       d="m 344.26799,27.718998 c 0.83995,0 1.6289,0.105474 1.6289,1.31242 0,1.15424 -0.36898,2.888434 -1.10393,3.884673 -0.68096,0.892746 -1.46991,1.103633 -2.20487,1.103633 -2.83483,0 -4.25074,-3.359495 -4.67071,-6.300726 z m -6.5096,-1.839727 c 0.10499,-2.517027 0.20998,-5.513334 1.73389,-8.291674 1.36492,-2.519367 3.04481,-3.152148 4.72471,-3.152148 2.51985,0 3.88476,1.628811 4.9857,3.047874 l 1.15493,-0.999569 c -0.94195,-1.31359 -3.67478,-4.880552 -8.13551,-4.880552 -5.03969,0 -8.39948,4.355584 -8.39948,11.441482 0,7.668341 3.93576,12.812428 8.87045,12.812428 4.04376,0 6.82459,-3.202605 6.82459,-7.71625 0,-1.944031 -0.57597,-2.261591 -1.83589,-2.261591 h -9.92339"
       style="fill:#000000;fill-opacity:1;fill-rule:nonzero;stroke:none;stroke-width:0.299982"
       id="path72" /><path
       d="m 352.2475,33.492356 c 4.35874,2.101072 4.9887,6.509603 5.24968,8.138203 h 1.52391 v -7.454845 h 4.8297 l -0.31498,-2.048275 h -4.56572 L 358.8621,20.525317 c 0.054,-4.566531 0.054,-6.456656 2.04887,-6.456656 0.83995,0 1.57491,0.417185 2.36386,0.894096 l 0.68096,-1.419064 c -1.41592,-0.788621 -3.09881,-1.682687 -5.09369,-1.682687 -1.31092,0 -2.46585,0.528478 -3.20081,1.628811 -0.78895,1.049936 -0.78895,2.049475 -0.73495,5.40903 l 0.20998,13.179395 h -3.09581 l 0.20699,1.414114"
       style="fill:#000000;fill-opacity:1;fill-rule:nonzero;stroke:none;stroke-width:0.299982"
       id="path74" /><path
       d="m 366.21165,28.401007 c 0.83995,3.413551 0.94494,4.148206 1.46991,7.561698 h 1.25992 c 0.105,-0.316481 0.20999,-0.577765 0.94494,-0.683358 1.10394,-0.105294 4.82971,-0.105294 6.08963,-0.105294 1.83889,0 3.46479,0.0528 5.09369,0.105294 l 0.26099,-0.629062 -12.07427,-20.845278 c 8.39949,-0.05037 9.23944,0 10.34337,5.672714 l 1.78489,-0.31756 c -0.84295,-3.516596 -0.99894,-4.461058 -1.41891,-7.139805 -6.24562,0.05391 -7.50554,0.05391 -15.22407,-0.05157 l -0.31498,0.735915 11.96927,20.735154 c -5.87964,0.0525 -7.29556,0.0525 -8.34549,-5.40447 l -1.83889,0.365618"
       style="fill:#000000;fill-opacity:1;fill-rule:nonzero;stroke:none;stroke-width:0.299982"
       id="path76" /><path
       d="m 410.96892,16.798975 c 0.16499,-1.940492 0.71695,-2.678747 3.65677,-2.678747 3.87577,0 5.26168,1.419064 5.75965,1.890125 1.6619,1.730744 2.27086,4.09781 2.27086,6.403919 0,3.678285 -1.38591,6.144915 -3.10181,7.246418 -2.21686,1.365216 -5.76564,1.365216 -8.69647,1.31242 0,-2.572103 -0.057,-12.179737 0.111,-14.174135 z m -0.16799,21.735773 c 0,-1.837388 0,-3.677175 0.057,-5.513363 3.21281,-0.0528 4.9857,-0.105294 6.7016,0.787452 0.94194,0.472171 3.2128,2.101071 3.2128,6.456805 0,1.575804 -0.32998,3.77887 -1.82689,5.302177 -1.10693,1.101533 -2.43585,1.523307 -5.15668,1.523307 -0.93895,0 -1.82389,-0.0525 -2.76284,-0.105294 -0.11099,-2.677636 -0.22498,-4.724711 -0.22498,-8.451084 z m -8.2525,10.706647 c 1.88089,-0.0525 3.71077,-0.101694 5.59766,-0.101694 2.32486,0.0492 4.64672,0.0492 6.98057,0.101694 3.15581,0 5.86765,-0.260084 8.03051,-2.308359 1.55091,-1.470511 2.26787,-3.570383 2.26787,-5.667855 0,-1.157929 -0.111,-3.888062 -2.38186,-6.302015 -1.77289,-1.941781 -4.04075,-2.519546 -5.31568,-2.78323 1.49391,-0.154491 4.54473,-0.418175 6.92658,-2.308329 2.15387,-1.628811 3.09881,-4.307527 3.09881,-6.928857 0,-3.834156 -1.5509,-6.143775 -2.60084,-7.299185 -3.2698,-3.623209 -8.36649,-3.623209 -10.30737,-3.623209 -0.82795,0 -5.09669,0.105474 -6.03863,0.105474 -2.10287,0 -4.20874,-0.05157 -6.25762,-0.105474 v 1.838558 c 3.48879,0.05157 3.71077,0.524968 3.82177,3.882183 v 24.57282 c 0,4.408231 -0.16799,5.038793 -3.82177,5.038793 v 1.888685"
       style="fill:#000000;fill-opacity:1;fill-rule:nonzero;stroke:none;stroke-width:0.299982"
       id="path78" /><path
       d="m 443.48693,24.148526 c -6.26062,-2.363526 -7.25955,-3.305648 -7.25955,-6.035961 0,-1.523337 0.60896,-3.884523 2.93682,-3.884523 1.6619,0 3.04781,1.047596 4.21174,1.940491 z m 3.98676,-6.983934 c 0.057,-1.571394 0.057,-2.570963 1.16393,-2.570963 0.60896,0 1.43991,0.420695 1.93788,0.682009 l 0.83395,-1.365157 c -1.38592,-0.891756 -3.2668,-2.151439 -5.10269,-2.151439 -2.15387,0 -2.65484,1.730775 -2.87682,2.676407 -1.27493,-1.101503 -3.10181,-2.726774 -6.09263,-2.726774 -3.54879,0 -5.48067,2.726774 -5.48067,5.666835 0,2.78302 1.38292,3.779049 1.87789,4.148176 1.6079,1.209317 6.09563,2.886154 9.7524,4.305218 v 2.888493 c 0,2.150119 0,4.774959 -2.66083,4.774959 -0.71696,0 -1.38592,-0.207287 -1.6619,-0.260084 -1.93789,-0.630262 -2.15687,-1.417714 -2.27086,-2.311959 -0.16799,-1.625211 -0.16799,-1.783421 -0.55197,-2.202916 -0.44097,-0.527308 -1.93788,-1.206976 -2.60684,-1.206976 -0.55197,0 -1.10693,0.208577 -1.10693,1.520997 0,1.681607 0.88794,2.519456 1.43991,2.888434 1.94388,1.520007 5.15068,2.937721 7.14856,3.779169 1.99188,0.210887 4.32274,-0.366877 5.48367,-1.995478 0.88494,-1.259923 0.88494,-2.730433 0.88494,-4.830305 l -0.11099,-11.708646"
       style="fill:#000000;fill-opacity:1;fill-rule:nonzero;stroke:none;stroke-width:0.299982"
       id="path80" /><path
       d="m 467.80345,27.824472 c 0,2.361186 -0.11099,3.623209 -0.66296,4.619148 -0.88495,1.418013 -2.37886,1.576104 -3.16181,1.576104 -5.25868,0 -5.31867,-7.615486 -5.31867,-9.034519 0,-7.766736 2.99981,-10.499359 5.76264,-10.499359 1.6649,0 2.55285,0.789792 3.3808,1.578414 z m -3.20981,21.469719 c 3.3778,0.894246 4.04076,1.15793 6.86659,2.572043 l 0.94194,-0.418174 c -0.27599,-2.62484 -0.38698,-3.990057 -0.44398,-8.294194 -0.11099,-5.931538 -0.11099,-13.124199 -0.11099,-19.110813 0,-1.784651 0,-6.40389 0.16799,-7.87452 0.11099,-1.363957 0.83395,-1.417863 1.7159,-1.417863 h 1.22092 v -1.678038 c -2.82583,-0.629241 -3.71077,-0.838989 -6.5936,-1.838558 l -0.77395,0.369128 0.27599,2.465459 c -1.55391,-1.100302 -3.20981,-2.309619 -5.87065,-2.309619 -5.37267,0 -7.92251,5.670374 -7.92251,11.759043 0,6.195341 2.43885,12.339027 9.02945,12.339027 2.60084,0 3.70777,-0.841149 4.70671,-1.523307 v 8.609174 c 0,4.673115 -0.11099,4.673115 -3.20981,4.673115 v 1.678097"
       style="fill:#000000;fill-opacity:1;fill-rule:nonzero;stroke:none;stroke-width:0.299982"
       id="path82" /><path
       d="m 489.24314,27.718998 c 0.88795,0 1.7189,0.105474 1.7189,1.31242 0,1.15424 -0.38998,2.888434 -1.16693,3.884673 -0.71996,0.892746 -1.54491,1.103633 -2.32786,1.103633 -2.98782,0 -4.48173,-3.359495 -4.9287,-6.300726 z m -6.86658,-1.839727 c 0.10799,-2.517027 0.21899,-5.513334 1.82689,-8.291674 1.44291,-2.519367 3.2068,-3.152148 4.98269,-3.152148 2.66084,0 4.09775,1.628811 5.26468,3.047874 l 1.21793,-0.999569 c -0.99594,-1.31359 -3.87877,-4.880552 -8.58548,-4.880552 -5.31567,0 -8.86446,4.355584 -8.86446,11.441482 0,7.668341 4.15775,12.812428 9.36243,12.812428 4.26574,0 7.20256,-3.202605 7.20256,-7.71625 0,-1.944031 -0.60896,-2.261591 -1.93788,-2.261591 h -10.46936"
       style="fill:#000000;fill-opacity:1;fill-rule:nonzero;stroke:none;stroke-width:0.299982"
       id="path84" /><path
       d="m 498.1616,34.175714 c 2.93982,0.681859 3.65677,0.892746 6.4856,1.994278 l 0.93594,-0.31288 c -0.10799,-1.365217 -0.16499,-1.681398 -0.16499,-3.518786 2.43885,1.576104 3.2668,2.048275 5.76265,3.360695 1.38292,0.210887 2.60384,0.105294 3.87576,-0.524968 2.93983,-1.523307 2.99082,-4.461028 3.04782,-6.72031 v -9.029928 c 0,-0.840189 0,-3.518936 0.11099,-4.199744 0.22199,-1.365157 1.10693,-1.419064 2.93982,-1.520997 v -1.682718 c -1.99788,0.05391 -3.82476,0.159381 -5.98763,0.159381 -1.93788,0 -2.87683,-0.105474 -4.15175,-0.159381 v 1.734285 c 1.93788,0.104273 2.76883,0.15584 2.87683,2.150238 0.054,0.578875 0.054,1.365157 0.11099,4.937999 v 4.826645 c -0.057,4.09664 -0.11099,7.246568 -3.2668,7.246568 -1.7129,0 -3.48879,-1.15433 -5.26168,-2.361456 V 18.370369 c 0,-3.93492 0.057,-4.615728 2.87982,-4.615728 v -1.734285 c -1.77289,0.105474 -3.59678,0.159381 -5.37267,0.159381 -1.6049,0 -3.2698,-0.05391 -4.8777,-0.159381 v 1.784651 c 2.38785,0 3.10481,0.315221 3.2158,1.892465 0.057,1.206976 0.057,2.097532 0.057,3.987657 v 5.198112 c 0,2.78305 -0.057,5.25202 -0.16799,6.353553 -0.16799,1.365216 -0.83095,1.365216 -3.04781,1.365216 v 1.573704"
       style="fill:#000000;fill-opacity:1;fill-rule:nonzero;stroke:none;stroke-width:0.299982"
       id="path86" /><path
       d="m 524.14301,23.729032 h 9.19396 v 3.306818 h -9.19396 z"
       style="fill:#000000;fill-opacity:1;fill-rule:nonzero;stroke:none;stroke-width:0.299982"
       id="path88" /><path
       d="m 545.03973,49.241395 c 1.82989,-0.0525 3.59978,-0.101694 5.42967,-0.101694 1.60491,0 3.04782,0.0492 5.20469,0.101694 V 47.35271 c -1.16093,0 -2.54385,0 -2.54385,-1.418014 0,-0.31408 0.11099,-0.630561 0.16499,-0.995939 0.22199,-0.841448 0.83095,-2.519546 1.10993,-3.360695 l 1.99188,-5.615357 c 1.6079,3.726373 1.77289,4.144547 3.43179,8.292694 0.39298,0.894245 0.55497,1.365217 0.55497,1.837388 0,1.259923 -0.93894,1.259923 -2.43585,1.259923 v 1.888685 c 1.38291,-0.0525 2.77183,-0.101694 4.20874,-0.101694 1.49691,0 3.04481,0.0492 4.59872,0.101694 V 47.35271 c -2.10587,0 -2.76883,-0.736155 -3.87576,-2.991717 -1.49391,-3.095812 -3.98676,-8.976053 -5.20769,-11.758983 l 4.76371,-13.59769 c 0.44398,1.415524 7.36755,21.6303 7.81153,22.94272 0.33298,0.890645 0.66296,1.837388 0.94194,2.728033 0.16799,0.474571 0.27598,0.945543 0.27598,1.365217 0,1.364917 -1.16393,1.364917 -2.54984,1.364917 v 1.836188 c 1.44291,-0.0525 2.88282,-0.101694 4.26574,-0.101694 1.49691,0 3.04781,0.0492 4.54472,0.101694 v -1.941482 c -2.66084,0 -2.71483,-0.261284 -4.54472,-5.038792 l -9.8034,-27.402638 c -0.55497,-1.419063 -0.66596,-1.839758 -1.04994,-3.149808 h -1.77589 c -0.66596,2.045966 -0.72296,2.255713 -1.43991,4.301678 -1.33192,3.572842 -2.65784,7.139804 -3.98976,10.657539 l -6.42861,-14.959217 h -1.71289 c -0.44698,1.520998 -0.66596,2.150239 -1.49691,4.619238 -1.7159,4.986026 -8.58548,24.726081 -9.8064,28.19117 -0.93895,2.62484 -1.27193,2.78083 -4.04376,2.78083 v 1.941482 c 1.82689,-0.101694 3.3808,-0.101694 5.09969,-0.101694 2.04888,0 4.04375,0.0492 6.03863,0.101694 V 47.35271 c -1.11293,0 -2.49584,0.0525 -2.44185,-1.259923 0,-0.472171 0.16799,-1.101533 0.33298,-1.626501 0.88795,-2.888224 5.70865,-17.008572 6.75859,-20.212286 0.83395,-2.574473 1.05593,-3.465029 1.77289,-5.883631 l 4.70971,11.659298 -3.99275,10.81344 -1.32592,3.359795 c -1.21793,3.044214 -1.43991,3.149808 -3.54579,3.149808 v 1.888685"
       style="fill:#000000;fill-opacity:1;fill-rule:nonzero;stroke:none;stroke-width:0.299982"
       id="path90" /><path
       d="m 592.08286,43.731631 c 0,-1.942682 -0.82795,-3.046614 -2.38185,-3.046614 -1.6079,0 -2.54685,0.998339 -2.54685,2.730433 0,0.474571 0,2.993818 2.49285,3.046614 0.77095,0 2.43585,-0.369277 2.43585,-2.730433 z m -8.86146,0.105593 c 0,-1.995778 -0.83095,-3.09941 -2.38485,-3.09941 -1.6079,0 -2.54684,1.051135 -2.54684,2.78293 0,0.470971 0,2.994117 2.48984,2.994117 0.77696,0 2.44185,-0.369277 2.44185,-2.677637 z m 2.66084,-8.926855 c 3.59678,0.158091 4.37373,0.263684 7.30756,0.788652 0,-2.888524 -0.054,-17.957924 0.16799,-19.319541 0.16499,-1.416723 0.77695,-1.416723 2.99081,-1.416723 v -1.577244 c -2.76883,-0.471061 -3.48878,-0.630441 -6.75858,-1.626471 l -0.77996,0.366788 0.28199,2.9424 c -1.7729,-1.47063 -4.10075,-3.413461 -7.25656,-3.413461 -4.8747,0 -4.8747,4.409491 -4.8747,6.403889 v 6.614836 c 0,1.259683 0,6.246819 -0.16799,7.193561 -0.16499,1.31242 -0.99894,1.365217 -2.54685,1.418014 v 1.6253 c 3.15881,0.158091 3.92976,0.263684 6.81259,0.788652 V 19.583195 c 0,-2.207685 0,-5.043442 2.82882,-5.043442 2.37886,0 4.59572,1.890094 5.36968,2.624839 v 8.349091 c 0,1.262023 -0.054,2.521706 -0.054,3.781419 -0.16799,3.726283 -0.33298,3.884373 -3.3208,3.93717 v 1.678097"
       style="fill:#000000;fill-opacity:1;fill-rule:nonzero;stroke:none;stroke-width:0.299982"
       id="path92" /><path
       d="m 598.50847,34.281008 c 2.60384,0.629361 3.3268,0.840248 6.42561,2.047375 l 1.05593,-0.312881 c -0.33597,-2.677637 -0.38997,-3.255401 -0.50096,-6.038422 0.99893,2.30845 2.88282,6.192912 5.92763,6.192912 0.93895,0 2.37886,-0.418174 2.37886,-1.46691 0,-0.15839 -0.108,-0.947042 -0.88495,-2.523146 -0.32998,-0.681858 -0.71995,-0.943142 -1.16393,-0.943142 -0.27298,0 -1.04993,0.31408 -1.5509,0.472171 -0.16499,0.0528 -0.38698,0.105593 -0.60896,0.105593 -1.7159,0 -2.66084,-2.048395 -3.04482,-2.991717 -0.72295,-1.892465 -0.72295,-4.149347 -0.72295,-6.774187 v -5.195773 c 0,-3.047874 0.49796,-3.09824 3.76777,-3.09824 v -1.734285 c -2.05188,0.105474 -3.65378,0.159381 -5.54067,0.159381 -1.82689,0 -3.70777,-0.05391 -5.53766,-0.159381 v 1.682718 c 3.10181,0 3.2698,0.365587 3.2698,3.780249 v 10.917684 c -0.057,3.726432 -0.057,4.2535 -1.94088,4.306297 h -1.32892 v 1.573704"
       style="fill:#000000;fill-opacity:1;fill-rule:nonzero;stroke:none;stroke-width:0.299982"
       id="path94" /><path
       d="m 616.0154,33.492356 c 4.60172,2.101072 5.26168,6.509603 5.53766,8.138203 h 1.60791 v -7.454845 h 5.09369 l -0.32998,-2.048275 h -4.81771 l -0.11099,-11.602122 c 0.054,-4.566531 0.054,-6.456656 2.15687,-6.456656 0.88794,0 1.66489,0.417185 2.49284,0.894096 l 0.72296,-1.419064 c -1.49691,-0.788621 -3.2698,-1.682687 -5.37267,-1.682687 -1.38592,0 -2.60384,0.528478 -3.3808,1.628811 -0.83395,1.049936 -0.83395,2.049475 -0.77695,5.40903 l 0.22199,13.179395 h -3.2698 l 0.22498,1.414114"
       style="fill:#000000;fill-opacity:1;fill-rule:nonzero;stroke:none;stroke-width:0.299982"
       id="path96" /><path
       d="m 629.86256,33.492356 c 4.60172,2.101072 5.26468,6.509603 5.54066,8.138203 h 1.6079 v -7.454845 h 5.09369 l -0.32998,-2.048275 h -4.82071 l -0.11099,-11.602122 c 0.057,-4.566531 0.057,-6.456656 2.16287,-6.456656 0.88495,0 1.6619,0.417185 2.48985,0.894096 l 0.71995,-1.419064 c -1.49391,-0.788621 -3.2668,-1.682687 -5.37267,-1.682687 -1.38291,0 -2.60084,0.528478 -3.38079,1.628811 -0.82795,1.049936 -0.82795,2.049475 -0.77395,5.40903 l 0.21898,13.179395 h -3.2638 l 0.21899,1.414114"
       style="fill:#000000;fill-opacity:1;fill-rule:nonzero;stroke:none;stroke-width:0.299982"
       id="path98" /><path
       d="m 655.51399,27.718998 c 0.88495,0 1.7189,0.105474 1.7189,1.31242 0,1.15424 -0.38998,2.888434 -1.16693,3.884673 -0.72296,0.892746 -1.54791,1.103633 -2.32486,1.103633 -2.99082,0 -4.48773,-3.359495 -4.9317,-6.300726 z m -6.86958,-1.839727 c 0.11099,-2.517027 0.22199,-5.513334 1.82389,-8.291674 1.44291,-2.519367 3.2158,-3.152148 4.9887,-3.152148 2.65783,0 4.09775,1.628811 5.26467,3.047874 l 1.21793,-0.999569 c -0.99894,-1.31359 -3.88176,-4.880552 -8.58848,-4.880552 -5.31867,0 -8.86146,4.355584 -8.86146,11.441482 0,7.668341 4.15475,12.812428 9.36243,12.812428 4.26274,0 7.19956,-3.202605 7.19956,-7.71625 0,-1.944031 -0.60896,-2.261591 -1.93788,-2.261591 h -10.46936"
       style="fill:#000000;fill-opacity:1;fill-rule:nonzero;stroke:none;stroke-width:0.299982"
       id="path100" /><path
       d="m 664.26746,34.122917 c 2.81983,0.681859 3.54278,0.893046 6.42561,2.047075 l 0.99593,-0.365677 -0.11099,-3.624379 c 1.49691,1.105133 2.54685,1.839788 4.15475,2.677637 1.43991,0.841448 1.6079,0.946742 2.71483,0.946742 3.76777,0 4.53873,-2.62484 4.9857,-3.884463 2.60384,2.047075 3.3238,2.519546 5.59466,3.726372 0.49797,0.105594 0.66596,0.105594 1.10993,0.105594 2.38185,0 3.82177,-1.259923 4.37673,-1.890185 1.38292,-1.576103 1.38292,-3.517885 1.43691,-5.984424 v -9.764644 c 0.06,-4.148177 0.06,-4.357924 3.10181,-4.357924 v -1.734285 c -1.65889,0.105474 -3.32079,0.159381 -4.98569,0.159381 -1.82689,0 -3.3208,-0.105474 -5.15069,-0.159381 v 1.734285 c 1.99488,0 2.76883,0.15584 2.82583,2.360015 0.054,1.419034 0.11099,4.935629 0.11099,6.510533 v 3.619699 c -0.057,3.363065 -0.11099,6.671203 -3.2698,6.671203 -1.82688,0 -3.82176,-1.679297 -4.8177,-2.572343 V 17.69307 c 0,-3.465028 0.054,-3.938429 2.82583,-3.938429 v -1.734285 c -1.49991,0.05391 -3.05082,0.105474 -4.59872,0.105474 -1.7189,0 -3.48879,-0.05157 -5.26468,-0.105474 v 1.734285 c 1.6079,-0.05157 2.66083,0.104273 2.82582,1.679177 0.057,0.471061 0.111,2.361186 0.111,3.570502 v 6.353522 c -0.054,3.412292 -0.054,4.827816 -0.55197,5.878952 -0.49797,0.995939 -1.44591,1.6265 -2.60384,1.6265 -1.33192,0 -2.15987,-0.524968 -4.9317,-2.308659 V 18.689099 c 0,-4.514964 0,-4.986025 2.93682,-4.934458 v -1.734285 c -2.04887,0.05391 -3.49178,0.105474 -5.09969,0.105474 -1.71589,0 -3.37779,-0.05157 -5.14768,-0.105474 v 1.734285 c 3.10181,0 3.2638,0.473401 3.2128,3.569302 v 9.451763 c 0,2.150269 0,3.043164 -0.057,3.990116 -0.111,1.836188 -0.89095,1.836188 -3.15581,1.836188 v 1.520907"
       style="fill:#000000;fill-opacity:1;fill-rule:nonzero;stroke:none;stroke-width:0.299982"
       id="path102" /><path
       d="m 707.20084,24.254 c 0,-4.253651 0,-6.72031 0.27298,-7.926087 0.33598,-1.682717 1.6079,-2.888493 3.65978,-2.888493 4.04075,0 5.59466,4.828985 5.59466,9.080296 0,7.140974 -3.21281,10.082294 -5.76265,10.082294 -1.32892,0 -2.54685,-0.787452 -3.76477,-1.6289 z m -7.09157,24.622017 c 2.99382,0.892745 3.76777,1.15403 6.64759,2.78293 l 0.88495,-0.524968 c -0.38398,-4.569921 -0.44097,-5.931538 -0.44097,-18.373878 2.15987,1.415613 2.60084,1.679297 4.9317,2.833327 0.88194,0.105593 1.71589,0.0528 2.48984,-0.158091 4.26574,-1.154329 6.6476,-5.510993 6.6476,-11.077064 0,-5.303586 -2.38186,-12.599231 -9.9144,-12.599231 -0.38997,0 -1.4969,0.101964 -2.66083,0.209748 -1.16693,0.05157 -2.32486,0.15704 -2.77183,0.15704 -1.16093,0 -1.93789,-0.105474 -3.15581,-0.264824 0.22198,1.682687 0.27598,2.522876 0.33598,5.514504 0,2.78302 0.054,8.557667 0.054,13.861284 0,2.78293 0,12.125859 -0.16799,14.172935 -0.16799,1.681397 -0.77695,1.890184 -2.87982,1.890184 v 1.576104"
       style="fill:#000000;fill-opacity:1;fill-rule:nonzero;stroke:none;stroke-width:0.299982"
       id="path104" /><path
       d="m 736.33506,27.718998 c 0.89094,0 1.71889,0.105474 1.71889,1.31242 0,1.15424 -0.38997,2.888434 -1.16392,3.884673 -0.71996,0.892746 -1.55091,1.103633 -2.32486,1.103633 -2.99382,0 -4.49073,-3.359495 -4.9287,-6.300726 z m -6.86958,-1.839727 c 0.11399,-2.517027 0.22498,-5.513334 1.82689,-8.291674 1.44291,-2.519367 3.2188,-3.152148 4.98569,-3.152148 2.65784,0 4.10375,1.628811 5.26768,3.047874 l 1.21793,-0.999569 c -0.99894,-1.31359 -3.88177,-4.880552 -8.59148,-4.880552 -5.31567,0 -8.86146,4.355584 -8.86146,11.441482 0,7.668341 4.15475,12.812428 9.35943,12.812428 4.26574,0 7.20556,-3.202605 7.20556,-7.71625 0,-1.944031 -0.60896,-2.261591 -1.93788,-2.261591 h -10.47236"
       style="fill:#000000;fill-opacity:1;fill-rule:nonzero;stroke:none;stroke-width:0.299982"
       id="path106" /><path
       d="m 745.14252,34.281008 c 2.60684,0.629361 3.3298,0.840248 6.42861,2.047375 l 1.05593,-0.312881 c -0.33897,-2.677637 -0.39297,-3.255401 -0.50096,-6.038422 0.99893,2.30845 2.87982,6.192912 5.92763,6.192912 0.94195,0 2.37886,-0.418174 2.37886,-1.46691 0,-0.15839 -0.11099,-0.947042 -0.88495,-2.523146 -0.33298,-0.681858 -0.71995,-0.943142 -1.16393,-0.943142 -0.27598,0 -1.04993,0.31408 -1.5509,0.472171 -0.16499,0.0528 -0.38698,0.105593 -0.60896,0.105593 -1.7159,0 -2.66084,-2.048395 -3.04482,-2.991717 -0.72295,-1.892465 -0.72295,-4.149347 -0.72295,-6.774187 v -5.195773 c 0,-3.047874 0.49796,-3.09824 3.76777,-3.09824 v -1.734285 c -2.05188,0.105474 -3.65378,0.159381 -5.54367,0.159381 -1.82388,0 -3.70777,-0.05391 -5.53766,-0.159381 v 1.682718 c 3.10481,0 3.2728,0.365587 3.2728,3.780249 v 10.917684 c -0.057,3.726432 -0.057,4.2535 -1.94388,4.306297 h -1.32892 v 1.573704"
       style="fill:#000000;fill-opacity:1;fill-rule:nonzero;stroke:none;stroke-width:0.299982"
       id="path108" /><path
       d="m 767.96813,28.140862 c 0,-1.78699 0.21899,-3.626718 0.88494,-5.042272 0.28199,-0.524968 0.94195,-1.784651 2.66084,-1.784651 3.3238,0 3.3238,5.195773 3.3238,6.299616 0,2.310789 -0.32998,3.676035 -0.66596,4.566381 -0.82795,2.048575 -2.27086,2.311959 -2.93382,2.259462 -1.6049,-0.105593 -3.2698,-1.784891 -3.2698,-6.298536 z M 765.52928,7.6132053 c 0,-2.7326532 2.99381,-5.2496766 6.75858,-5.2496766 3.88177,0 6.86959,2.5709301 6.86959,5.3551502 0,0.9421225 -0.32998,1.7823112 -0.93895,2.3072791 -0.94494,0.892896 -2.10287,0.998369 -5.65165,1.259683 -3.54579,0.317561 -3.65978,0.317561 -5.04269,0.575365 -0.88795,-1.100333 -1.99488,-2.4654894 -1.99488,-4.2478007 z m 16.78697,26.7733957 v -2.78293 l -4.26574,0.523768 c 0.38698,-0.837849 1.05294,-2.414013 1.05294,-4.461148 0,-4.621607 -3.48879,-7.930766 -7.70053,-7.930766 -0.66596,0 -1.16093,0.107784 -1.88389,0.213257 -1.10693,-1.313589 -1.6049,-1.944031 -1.6049,-2.730313 0,-1.259683 1.43691,-1.417863 2.10287,-1.520997 1.05294,-0.104274 6.31462,-0.421834 7.48155,-0.629242 4.48772,-0.894095 4.53872,-4.674344 4.53872,-5.4090595 C 782.03727,4.8805521 776.94058,0 770.51497,0 c -2.15987,0 -4.76071,0.57887167 -6.75258,2.1514327 -2.21987,1.835054 -2.21987,3.8329621 -2.21987,4.9368047 0.72296,0.9421225 1.38292,1.8901246 2.16287,2.7783404 0.71995,0.8940952 1.43691,1.7881912 2.21086,2.6248402 -1.16093,1.106182 -1.65889,1.736624 -1.65889,3.623238 l 0.55196,0.738225 c 0.83395,1.15187 2.10587,2.517027 3.10481,3.566963 -2.93382,1.419063 -4.26874,4.307557 -4.26874,7.299154 0,4.777419 3.21581,8.296504 7.97952,8.296504 2.54684,0 3.71077,-0.947042 4.7637,-1.892585 l 5.92764,0.263684"
       style="fill:#000000;fill-opacity:1;fill-rule:nonzero;stroke:none;stroke-width:0.299982"
       id="path110" /></g></svg>
